<svg width="360" height="360" viewBox="0 0 360 360" fill="none" xmlns="http://www.w3.org/2000/svg">
<path d="M86.6901 155.51H39.3701V167.34H86.6901V155.51Z" fill="#4C4C4D"/>
<path d="M63.34 185.39H16.02V197.22H63.34V185.39Z" fill="#4C4C4D"/>
<path d="M72.05 171.66H54V181.06H72.05V171.66Z" fill="#4C4C4D"/>
<mask id="mask0_174_386" style="mask-type:luminance" maskUnits="userSpaceOnUse" x="16" y="155" width="325" height="49">
<path d="M340.6 155.51H16.02V203.94H340.6V155.51Z" fill="white"/>
</mask>
<g mask="url(#mask0_174_386)">
<path d="M321.46 190.32C321.46 200.09 326.92 203.4 334.74 203.4H340.6V193.63H336.49C333.93 193.63 332.98 192.69 332.98 190.46V175.36H340.53V165.79H332.98V156.62H321.45V165.79H316.87V175.36H321.45V190.32H321.46ZM299.75 184.59C299.75 190.59 295.91 193.89 291.53 193.89C287.15 193.89 283.31 190.52 283.31 184.52C283.31 178.52 287.22 175.29 291.53 175.29C295.84 175.29 299.75 178.59 299.75 184.59ZM271.57 184.52C271.57 196.38 278.92 203.94 288.08 203.94C293.67 203.94 297.65 201.38 299.74 198.08V203.4H311.27V165.78H299.74V171.1C297.72 167.8 293.74 165.24 288.15 165.24C278.92 165.24 271.57 172.66 271.57 184.52ZM266.92 190.92H254.65C253.71 192.94 251.89 194.56 248.65 194.56C244.94 194.56 241.91 192.27 241.5 187.35H267.59C267.72 186.2 267.79 185.06 267.79 183.98C267.79 172.52 260.04 165.24 249.05 165.24C238.06 165.24 230.04 172.66 230.04 184.59C230.04 196.52 237.99 203.94 249.05 203.94C258.42 203.94 265.09 198.28 266.91 190.93M248.91 174.48C252.75 174.48 255.99 176.84 255.99 180.95H241.56C242.23 176.77 245.13 174.48 248.91 174.48ZM225.25 192.48C225.05 178.46 204.69 182.71 204.69 176.71C204.69 174.89 206.17 173.81 208.87 173.81C212.11 173.81 214.06 175.49 214.4 178.06H225.05C224.31 170.64 218.92 165.25 209.21 165.25C199.5 165.25 193.91 170.51 193.91 176.91C193.91 190.73 214.4 186.35 214.4 192.42C214.4 194.1 212.85 195.45 209.88 195.45C206.71 195.45 204.35 193.7 204.08 191.07H192.69C193.23 198.35 199.97 203.95 210.01 203.95C219.45 203.95 225.25 199.03 225.25 192.49M169.17 190.33C169.17 200.1 174.63 203.41 182.45 203.41H188.31V193.64H184.2C181.64 193.64 180.69 192.7 180.69 190.47V175.37H188.24V165.8H180.69V156.63H169.16V165.8H164.58V175.37H169.16V190.33H169.17ZM133.85 184.6C133.85 178.2 137.49 175.23 141.67 175.23C145.85 175.23 149.49 178.2 149.49 184.6C149.49 191 145.65 193.97 141.54 193.97C137.43 193.97 133.85 190.94 133.85 184.6ZM161.22 184.6C161.22 172.67 152.73 165.25 141.67 165.25C130.61 165.25 122.12 172.67 122.12 184.6C122.12 196.53 130.48 203.95 141.54 203.95C152.6 203.95 161.22 196.53 161.22 184.6ZM104.6 203.41H116.13V156.09H104.6V174.63H86.6701V156.09H75.1401V203.41H86.6701V183.93H104.6V203.41Z" fill="#4C4C4D"/>
</g>
</svg>
